<svg xmlns="http://www.w3.org/2000/svg" xmlns:xlink="http://www.w3.org/1999/xlink" width="500" zoomAndPan="magnify" viewBox="0 0 375 374.999991" height="500" preserveAspectRatio="xMidYMid meet" version="1.0"><path fill="#ffffff" d="M 338.777344 375.019531 L 36.222656 375.019531 C 16.25 375.019531 0 358.773438 0 338.800781 L 0 36.242188 C 0 16.269531 16.25 0.0195312 36.222656 0.0195312 L 338.777344 0.0195312 C 358.75 0.0195312 375 16.269531 375 36.242188 L 375 338.800781 C 375 358.773438 358.75 375.019531 338.777344 375.019531 Z M 36.222656 21.328125 C 28 21.328125 21.308594 28.019531 21.308594 36.242188 L 21.308594 338.800781 C 21.308594 347.023438 28 353.714844 36.222656 353.714844 L 338.777344 353.714844 C 347 353.714844 353.691406 347.023438 353.691406 338.800781 L 353.691406 36.242188 C 353.691406 28.019531 347 21.328125 338.777344 21.328125 Z M 36.222656 21.328125 " fill-opacity="1" fill-rule="nonzero"/><path fill="#ffffff" d="M 138.320312 204.949219 L 123.523438 249.765625 L 104.5 249.765625 L 153.117188 107.289062 L 175.101562 107.289062 L 223.722656 249.765625 L 204.0625 249.765625 L 188.84375 204.949219 Z M 185.246094 190.578125 L 171.085938 149.566406 C 167.917969 140.265625 165.804688 131.808594 163.6875 123.566406 L 163.261719 123.566406 C 161.148438 131.808594 159.035156 140.6875 156.078125 149.355469 L 142.125 190.578125 Z M 185.246094 190.578125 " fill-opacity="1" fill-rule="nonzero"/><path fill="#ffffff" d="M 264.101562 118.703125 C 264.101562 125.046875 259.660156 130.117188 252.261719 130.117188 C 245.496094 130.117188 241.058594 125.046875 241.058594 118.703125 C 241.058594 112.363281 245.710938 107.078125 252.683594 107.078125 C 259.449219 107.078125 264.101562 112.152344 264.101562 118.703125 Z M 243.386719 249.765625 L 243.386719 147.453125 L 261.988281 147.453125 L 261.988281 249.765625 Z M 243.386719 249.765625 " fill-opacity="1" fill-rule="nonzero"/></svg>