<svg xmlns="http://www.w3.org/2000/svg" xmlns:xlink="http://www.w3.org/1999/xlink" width="1080" zoomAndPan="magnify" viewBox="0 0 810 374.999991" height="500" preserveAspectRatio="xMidYMid meet" version="1.0"><defs><clipPath id="cfa9fea66a"><path d="M 59.839844 61.332031 L 744.882812 61.332031 L 744.882812 375 L 59.839844 375 Z M 59.839844 61.332031 " clip-rule="nonzero"/></clipPath><clipPath id="ddd3e7881f"><path d="M 109.339844 61.332031 L 695.382812 61.332031 C 708.511719 61.332031 721.101562 66.546875 730.382812 75.828125 C 739.667969 85.113281 744.882812 97.703125 744.882812 110.832031 L 744.882812 696.871094 C 744.882812 710 739.667969 722.589844 730.382812 731.875 C 721.101562 741.15625 708.511719 746.371094 695.382812 746.371094 L 109.339844 746.371094 C 96.214844 746.371094 83.621094 741.15625 74.339844 731.875 C 65.054688 722.589844 59.839844 710 59.839844 696.871094 L 59.839844 110.832031 C 59.839844 97.703125 65.054688 85.113281 74.339844 75.828125 C 83.621094 66.546875 96.214844 61.332031 109.339844 61.332031 Z M 109.339844 61.332031 " clip-rule="nonzero"/></clipPath><clipPath id="6b1da9e3c4"><path d="M 59.839844 61.332031 L 744.589844 61.332031 L 744.589844 375 L 59.839844 375 Z M 59.839844 61.332031 " clip-rule="nonzero"/></clipPath><clipPath id="42e3c7ab2e"><path d="M 109.339844 61.332031 L 695.375 61.332031 C 708.5 61.332031 721.089844 66.546875 730.375 75.828125 C 739.65625 85.113281 744.871094 97.703125 744.871094 110.832031 L 744.871094 696.863281 C 744.871094 709.992188 739.65625 722.582031 730.375 731.863281 C 721.089844 741.148438 708.5 746.363281 695.375 746.363281 L 109.339844 746.363281 C 96.210938 746.363281 83.621094 741.148438 74.339844 731.863281 C 65.054688 722.582031 59.839844 709.992188 59.839844 696.863281 L 59.839844 110.832031 C 59.839844 97.703125 65.054688 85.113281 74.339844 75.828125 C 83.621094 66.546875 96.210938 61.332031 109.339844 61.332031 Z M 109.339844 61.332031 " clip-rule="nonzero"/></clipPath><clipPath id="a3d3b4cd46"><path d="M 169.074219 106.992188 L 301.269531 106.992188 L 301.269531 129.480469 L 169.074219 129.480469 Z M 169.074219 106.992188 " clip-rule="nonzero"/></clipPath><clipPath id="7d2d03a33d"><path d="M 180.316406 106.992188 L 289.976562 106.992188 C 296.1875 106.992188 301.21875 112.027344 301.21875 118.238281 C 301.21875 124.445312 296.1875 129.480469 289.976562 129.480469 L 180.316406 129.480469 C 174.105469 129.480469 169.074219 124.445312 169.074219 118.238281 C 169.074219 112.027344 174.105469 106.992188 180.316406 106.992188 Z M 180.316406 106.992188 " clip-rule="nonzero"/></clipPath><clipPath id="9fec0c4c91"><path d="M 318.484375 106.992188 L 385.328125 106.992188 L 385.328125 129.480469 L 318.484375 129.480469 Z M 318.484375 106.992188 " clip-rule="nonzero"/></clipPath><clipPath id="9a8e811782"><path d="M 329.726562 106.992188 L 374.019531 106.992188 C 380.230469 106.992188 385.261719 112.027344 385.261719 118.238281 C 385.261719 124.445312 380.230469 129.480469 374.019531 129.480469 L 329.726562 129.480469 C 323.515625 129.480469 318.484375 124.445312 318.484375 118.238281 C 318.484375 112.027344 323.515625 106.992188 329.726562 106.992188 Z M 329.726562 106.992188 " clip-rule="nonzero"/></clipPath><clipPath id="b8c33b9079"><path d="M 87.09375 178.761719 L 639.15625 178.761719 L 639.15625 201.25 L 87.09375 201.25 Z M 87.09375 178.761719 " clip-rule="nonzero"/></clipPath><clipPath id="ecf758e1d0"><path d="M 98.335938 178.761719 L 627.910156 178.761719 C 634.117188 178.761719 639.152344 183.796875 639.152344 190.003906 C 639.152344 196.214844 634.117188 201.25 627.910156 201.25 L 98.335938 201.25 C 92.128906 201.25 87.09375 196.214844 87.09375 190.003906 C 87.09375 183.796875 92.128906 178.761719 98.335938 178.761719 Z M 98.335938 178.761719 " clip-rule="nonzero"/></clipPath><clipPath id="2432f44d64"><path d="M 87.09375 222.613281 L 328 222.613281 L 328 245.101562 L 87.09375 245.101562 Z M 87.09375 222.613281 " clip-rule="nonzero"/></clipPath><clipPath id="fc89331810"><path d="M 98.335938 222.613281 L 316.746094 222.613281 C 322.957031 222.613281 327.988281 227.648438 327.988281 233.855469 C 327.988281 240.066406 322.957031 245.101562 316.746094 245.101562 L 98.335938 245.101562 C 92.128906 245.101562 87.09375 240.066406 87.09375 233.855469 C 87.09375 227.648438 92.128906 222.613281 98.335938 222.613281 Z M 98.335938 222.613281 " clip-rule="nonzero"/></clipPath><clipPath id="4d9a94a298"><path d="M 89.097656 91.523438 L 143 91.523438 L 143 145 L 89.097656 145 Z M 89.097656 91.523438 " clip-rule="nonzero"/></clipPath><clipPath id="d61c7a78d2"><path d="M 88.347656 118.238281 C 88.347656 125.519531 91.242188 132.507812 96.394531 137.65625 C 101.542969 142.808594 108.53125 145.703125 115.8125 145.703125 C 123.097656 145.703125 130.085938 142.808594 135.234375 137.65625 C 140.386719 132.507812 143.277344 125.519531 143.277344 118.238281 C 143.277344 110.953125 140.386719 103.96875 135.234375 98.816406 C 130.085938 93.664062 123.097656 90.773438 115.8125 90.773438 C 108.53125 90.773438 101.542969 93.664062 96.394531 98.816406 C 91.242188 103.96875 88.347656 110.953125 88.347656 118.238281 Z M 88.347656 118.238281 " clip-rule="nonzero"/></clipPath><clipPath id="55b1e2dc7d"><path d="M 115.8125 91.671875 C 122.859375 91.671875 129.617188 94.46875 134.597656 99.453125 C 139.582031 104.433594 142.378906 111.191406 142.378906 118.238281 C 142.378906 125.28125 139.582031 132.039062 134.597656 137.023438 C 129.617188 142.003906 122.859375 144.800781 115.8125 144.800781 C 108.769531 144.800781 102.011719 142.003906 97.027344 137.023438 C 92.046875 132.039062 89.25 125.28125 89.25 118.238281 C 89.25 111.191406 92.046875 104.433594 97.027344 99.453125 C 102.011719 94.46875 108.769531 91.671875 115.8125 91.671875 Z M 115.8125 91.671875 " clip-rule="nonzero"/></clipPath><clipPath id="fe3d33c017"><path d="M 88.347656 90.773438 L 143.097656 90.773438 L 143.097656 145.523438 L 88.347656 145.523438 Z M 88.347656 90.773438 " clip-rule="nonzero"/></clipPath><clipPath id="f5f2dd5f0e"><path d="M 88.347656 118.238281 C 88.347656 125.519531 91.242188 132.507812 96.394531 137.65625 C 101.542969 142.808594 108.53125 145.703125 115.8125 145.703125 C 123.097656 145.703125 130.085938 142.808594 135.234375 137.65625 C 140.386719 132.507812 143.277344 125.519531 143.277344 118.238281 C 143.277344 110.953125 140.386719 103.96875 135.234375 98.816406 C 130.085938 93.664062 123.097656 90.773438 115.8125 90.773438 C 108.53125 90.773438 101.542969 93.664062 96.394531 98.816406 C 91.242188 103.96875 88.347656 110.953125 88.347656 118.238281 Z M 88.347656 118.238281 " clip-rule="nonzero"/></clipPath><clipPath id="163cc1e199"><path d="M 88.347656 118.234375 C 88.347656 125.519531 91.242188 132.503906 96.390625 137.652344 C 101.542969 142.804688 108.527344 145.699219 115.8125 145.699219 C 123.09375 145.699219 130.082031 142.804688 135.230469 137.652344 C 140.378906 132.503906 143.273438 125.519531 143.273438 118.234375 C 143.273438 110.949219 140.378906 103.964844 135.230469 98.816406 C 130.082031 93.664062 123.09375 90.773438 115.8125 90.773438 C 108.527344 90.773438 101.542969 93.664062 96.390625 98.816406 C 91.242188 103.964844 88.347656 110.949219 88.347656 118.234375 Z M 88.347656 118.234375 " clip-rule="nonzero"/></clipPath></defs><g clip-path="url(#cfa9fea66a)"><g clip-path="url(#ddd3e7881f)"><path fill="#f57f17" d="M 59.839844 61.332031 L 744.882812 61.332031 L 744.882812 746.371094 L 59.839844 746.371094 Z M 59.839844 61.332031 " fill-opacity="1" fill-rule="nonzero"/></g></g><g clip-path="url(#6b1da9e3c4)"><g clip-path="url(#42e3c7ab2e)"><path stroke-linecap="butt" transform="matrix(0.75, 0, 0, 0.75, 59.841212, 61.33143)" fill="none" stroke-linejoin="miter" d="M 65.99818 0.000802237 L 847.378439 0.000802237 C 864.878441 0.000802237 881.6649 6.953928 894.045109 19.328929 C 906.42011 31.709138 913.373235 48.495597 913.373235 66.000807 L 913.373235 847.375858 C 913.373235 864.881067 906.42011 881.667527 894.045109 894.042528 C 881.6649 906.422737 864.878441 913.375862 847.378439 913.375862 L 65.99818 913.375862 C 48.49297 913.375862 31.706511 906.422737 19.33151 894.042528 C 6.951301 881.667527 -0.00182459 864.881067 -0.00182459 847.375858 L -0.00182459 66.000807 C -0.00182459 48.495597 6.951301 31.709138 19.33151 19.328929 C 31.706511 6.953928 48.49297 0.000802237 65.99818 0.000802237 Z M 65.99818 0.000802237 " stroke="#b25c11" stroke-width="10" stroke-opacity="1" stroke-miterlimit="4"/></g></g><g clip-path="url(#a3d3b4cd46)"><g clip-path="url(#7d2d03a33d)"><path fill="#ffca28" d="M 169.074219 106.992188 L 301.179688 106.992188 L 301.179688 129.480469 L 169.074219 129.480469 Z M 169.074219 106.992188 " fill-opacity="1" fill-rule="nonzero"/></g></g><g clip-path="url(#9fec0c4c91)"><g clip-path="url(#9a8e811782)"><path fill="#ffca28" d="M 318.484375 106.992188 L 385.238281 106.992188 L 385.238281 129.480469 L 318.484375 129.480469 Z M 318.484375 106.992188 " fill-opacity="1" fill-rule="nonzero"/></g></g><g clip-path="url(#b8c33b9079)"><g clip-path="url(#ecf758e1d0)"><path fill="#ffca28" d="M 87.09375 178.761719 L 639.15625 178.761719 L 639.15625 201.25 L 87.09375 201.25 Z M 87.09375 178.761719 " fill-opacity="1" fill-rule="nonzero"/></g></g><g clip-path="url(#2432f44d64)"><g clip-path="url(#fc89331810)"><path fill="#ffca28" d="M 87.09375 222.613281 L 327.945312 222.613281 L 327.945312 245.101562 L 87.09375 245.101562 Z M 87.09375 222.613281 " fill-opacity="1" fill-rule="nonzero"/></g></g><g clip-path="url(#4d9a94a298)"><g clip-path="url(#d61c7a78d2)"><g clip-path="url(#55b1e2dc7d)"><path fill="#ffa000" d="M 143.273438 118.234375 C 143.273438 119.132812 143.230469 120.03125 143.140625 120.925781 C 143.054688 121.820312 142.921875 122.710938 142.746094 123.59375 C 142.570312 124.472656 142.351562 125.34375 142.089844 126.207031 C 141.828125 127.066406 141.527344 127.914062 141.183594 128.742188 C 140.839844 129.574219 140.453125 130.386719 140.03125 131.179688 C 139.605469 131.972656 139.144531 132.742188 138.644531 133.492188 C 138.144531 134.238281 137.609375 134.960938 137.039062 135.65625 C 136.46875 136.351562 135.867188 137.015625 135.230469 137.652344 C 134.59375 138.289062 133.929688 138.890625 133.234375 139.464844 C 132.539062 140.035156 131.816406 140.570312 131.066406 141.066406 C 130.320312 141.566406 129.550781 142.03125 128.757812 142.453125 C 127.964844 142.878906 127.152344 143.261719 126.320312 143.605469 C 125.488281 143.949219 124.644531 144.253906 123.78125 144.515625 C 122.921875 144.773438 122.050781 144.992188 121.167969 145.167969 C 120.285156 145.34375 119.398438 145.476562 118.503906 145.5625 C 117.609375 145.652344 116.710938 145.695312 115.8125 145.695312 C 114.910156 145.695312 114.015625 145.652344 113.121094 145.5625 C 112.222656 145.476562 111.335938 145.34375 110.453125 145.167969 C 109.570312 144.992188 108.699219 144.773438 107.839844 144.515625 C 106.976562 144.253906 106.132812 143.949219 105.300781 143.605469 C 104.46875 143.261719 103.660156 142.878906 102.867188 142.453125 C 102.070312 142.03125 101.300781 141.566406 100.554688 141.066406 C 99.804688 140.570312 99.085938 140.035156 98.390625 139.464844 C 97.695312 138.890625 97.027344 138.289062 96.390625 137.652344 C 95.757812 137.015625 95.152344 136.351562 94.582031 135.65625 C 94.011719 134.960938 93.476562 134.238281 92.976562 133.492188 C 92.476562 132.742188 92.015625 131.972656 91.589844 131.179688 C 91.167969 130.386719 90.78125 129.574219 90.4375 128.742188 C 90.09375 127.914062 89.792969 127.066406 89.53125 126.207031 C 89.269531 125.34375 89.050781 124.472656 88.875 123.59375 C 88.699219 122.710938 88.570312 121.820312 88.480469 120.925781 C 88.390625 120.03125 88.347656 119.132812 88.347656 118.234375 C 88.347656 117.335938 88.390625 116.4375 88.480469 115.542969 C 88.570312 114.648438 88.699219 113.757812 88.875 112.875 C 89.050781 111.996094 89.269531 111.121094 89.53125 110.261719 C 89.792969 109.402344 90.09375 108.554688 90.4375 107.726562 C 90.78125 106.894531 91.167969 106.082031 91.589844 105.289062 C 92.015625 104.496094 92.476562 103.726562 92.976562 102.976562 C 93.476562 102.230469 94.011719 101.507812 94.582031 100.8125 C 95.152344 100.117188 95.757812 99.453125 96.390625 98.816406 C 97.027344 98.179688 97.695312 97.574219 98.390625 97.003906 C 99.085938 96.433594 99.804688 95.898438 100.554688 95.398438 C 101.300781 94.898438 102.070312 94.4375 102.867188 94.015625 C 103.660156 93.589844 104.46875 93.207031 105.300781 92.863281 C 106.132812 92.519531 106.976562 92.214844 107.839844 91.953125 C 108.699219 91.691406 109.570312 91.476562 110.453125 91.300781 C 111.335938 91.125 112.222656 90.992188 113.121094 90.902344 C 114.015625 90.816406 114.910156 90.773438 115.8125 90.773438 C 116.710938 90.773438 117.609375 90.816406 118.503906 90.902344 C 119.398438 90.992188 120.285156 91.125 121.167969 91.300781 C 122.050781 91.476562 122.921875 91.691406 123.78125 91.953125 C 124.644531 92.214844 125.488281 92.519531 126.320312 92.863281 C 127.152344 93.207031 127.964844 93.589844 128.757812 94.015625 C 129.550781 94.4375 130.320312 94.898438 131.066406 95.398438 C 131.816406 95.898438 132.539062 96.433594 133.234375 97.003906 C 133.929688 97.574219 134.59375 98.179688 135.230469 98.816406 C 135.867188 99.453125 136.46875 100.117188 137.039062 100.8125 C 137.609375 101.507812 138.144531 102.230469 138.644531 102.976562 C 139.144531 103.726562 139.605469 104.496094 140.03125 105.289062 C 140.453125 106.082031 140.839844 106.894531 141.183594 107.726562 C 141.527344 108.554688 141.828125 109.402344 142.089844 110.261719 C 142.351562 111.121094 142.570312 111.996094 142.746094 112.875 C 142.921875 113.757812 143.054688 114.648438 143.140625 115.542969 C 143.230469 116.4375 143.273438 117.335938 143.273438 118.234375 Z M 143.273438 118.234375 " fill-opacity="1" fill-rule="nonzero"/></g></g></g><g clip-path="url(#fe3d33c017)"><g clip-path="url(#f5f2dd5f0e)"><g clip-path="url(#163cc1e199)"><path stroke-linecap="butt" transform="matrix(0.75, 0, 0, 0.75, 88.348487, 90.771666)" fill="none" stroke-linejoin="miter" d="M -0.00110782 36.61695 C -0.00110782 46.330493 3.858268 55.642994 10.722852 62.507578 C 17.592644 69.377371 26.905146 73.236746 36.618689 73.236746 C 46.327023 73.236746 55.644733 69.377371 62.509317 62.507578 C 69.373901 55.642994 73.233277 46.330493 73.233277 36.61695 C 73.233277 26.903407 69.373901 17.590906 62.509317 10.726322 C 55.644733 3.856529 46.327023 0.00236195 36.618689 0.00236195 C 26.905146 0.00236195 17.592644 3.856529 10.722852 10.726322 C 3.858268 17.590906 -0.00110782 26.903407 -0.00110782 36.61695 Z M -0.00110782 36.61695 " stroke="#ed990b" stroke-width="10" stroke-opacity="1" stroke-miterlimit="4"/></g></g></g></svg>