<svg xmlns="http://www.w3.org/2000/svg" xmlns:xlink="http://www.w3.org/1999/xlink" width="500" zoomAndPan="magnify" viewBox="0 0 375 374.999991" height="500" preserveAspectRatio="xMidYMid meet" version="1.0"><defs><clipPath id="207946d441"><path d="M 274 83 L 372.476562 83 L 372.476562 320 L 274 320 Z M 274 83 " clip-rule="nonzero"/></clipPath></defs><path fill="#00c4b3" d="M 105.460938 104.78125 L 81.554688 80.875 L 81.644531 253.539062 L 81.933594 261.597656 C 82.050781 265.410156 82.773438 269.683594 83.929688 274.128906 L 273.28125 340.875 L 320.65625 319.917969 L 320.695312 319.847656 L 105.449219 104.78125 Z M 105.460938 104.78125 " fill-opacity="1" fill-rule="nonzero"/><path fill="#22d3c5" d="M 83.933594 274.128906 L 83.949219 274.128906 C 83.933594 274.058594 83.90625 273.976562 83.871094 273.898438 C 83.910156 273.984375 83.910156 274.070312 83.929688 274.128906 Z M 320.609375 319.917969 L 273.234375 340.875 L 83.910156 274.128906 C 87.519531 288.007812 95.535156 303.609375 104.144531 312.121094 L 165.902344 373.539062 L 303.335938 373.714844 L 320.550781 319.917969 Z M 320.609375 319.917969 " fill-opacity="1" fill-rule="nonzero"/><path fill="#0075c9" d="M 82.199219 80.882812 L 8.578125 192.003906 C 2.46875 198.527344 5.519531 211.992188 15.355469 221.914062 L 57.855469 264.734375 L 84.570312 274.144531 C 83.414062 269.710938 82.6875 265.484375 82.574219 261.617188 L 82.285156 253.554688 L 82.199219 80.894531 Z M 82.199219 80.882812 " fill-opacity="1" fill-rule="nonzero"/><path fill="#0075c9" d="M 274.839844 83.105469 C 270.390625 81.980469 266.128906 81.269531 262.285156 81.160156 L 253.746094 80.847656 L 81.554688 80.886719 L 320.6875 319.851562 L 341.695312 272.503906 L 274.851562 83.117188 Z M 274.839844 83.105469 " fill-opacity="1" fill-rule="nonzero"/><g clip-path="url(#207946d441)"><path fill="#00a8e1" d="M 274.621094 83.066406 C 274.695312 83.09375 274.777344 83.109375 274.839844 83.121094 L 274.839844 83.097656 C 274.765625 83.082031 274.695312 83.082031 274.621094 83.054688 Z M 312.835938 103.378906 C 304.144531 94.628906 288.746094 86.632812 274.839844 83.121094 L 341.683594 272.492188 L 320.65625 319.839844 L 371.96875 303.453125 L 372.085938 162.84375 L 312.832031 103.371094 Z M 312.835938 103.378906 " fill-opacity="1" fill-rule="nonzero"/></g><path fill="#00c4b3" d="M 265.46875 56.574219 L 222.71875 14.078125 C 212.746094 4.277344 199.273438 1.21875 192.800781 7.316406 L 81.621094 80.875 L 253.816406 80.835938 L 262.355469 81.148438 C 266.195312 81.261719 270.464844 81.96875 274.910156 83.09375 L 265.480469 56.5625 Z M 265.46875 56.574219 " fill-opacity="1" fill-rule="nonzero"/></svg>