<svg xmlns="http://www.w3.org/2000/svg" xmlns:xlink="http://www.w3.org/1999/xlink" width="500" zoomAndPan="magnify" viewBox="0 0 375 374.999991" height="500" preserveAspectRatio="xMidYMid meet" version="1.0"><defs><clipPath id="41d736b7e3"><path d="M 46.023438 0 L 328.773438 0 L 328.773438 375 L 46.023438 375 Z M 46.023438 0 " clip-rule="nonzero"/></clipPath><clipPath id="8cde65e4f8"><path d="M 46.023438 0 L 328.773438 0 L 328.773438 375 L 46.023438 375 Z M 46.023438 0 " clip-rule="nonzero"/></clipPath></defs><g clip-path="url(#41d736b7e3)"><path fill="#08253c" d="M 46.320312 0 L 246.066406 0 L 328.464844 82.460938 L 328.464844 375.011719 L 46.320312 375.011719 Z M 46.320312 0 " fill-opacity="1" fill-rule="evenodd"/></g><path fill="#37abff" d="M 188.117188 222.085938 C 188.199219 227.4375 187.253906 232.601562 185.277344 237.578125 C 183.464844 242.117188 180.769531 246.054688 177.191406 249.382812 C 173.410156 252.777344 169.109375 255.289062 164.292969 256.914062 C 158.351562 258.820312 152.261719 259.71875 146.023438 259.605469 L 133.011719 259.605469 L 133.011719 300.820312 C 133.03125 301.289062 132.898438 301.703125 132.613281 302.074219 C 132.289062 302.476562 131.882812 302.757812 131.390625 302.925781 C 130.644531 303.164062 129.878906 303.34375 129.101562 303.464844 C 126.644531 303.734375 124.183594 303.734375 121.726562 303.464844 C 120.933594 303.34375 120.160156 303.164062 119.394531 302.925781 C 118.890625 302.777344 118.484375 302.492188 118.175781 302.074219 C 117.914062 301.695312 117.789062 301.277344 117.804688 300.820312 L 117.804688 195.089844 C 117.804688 192.738281 118.433594 191.023438 119.683594 190.082031 C 120.878906 189.074219 122.253906 188.570312 123.816406 188.582031 L 148.351562 188.582031 C 150.816406 188.582031 153.195312 188.671875 155.46875 188.863281 C 158.160156 189.164062 160.828125 189.609375 163.472656 190.203125 C 166.832031 190.992188 170 192.257812 172.980469 194 C 176.101562 195.824219 178.820312 198.125 181.144531 200.898438 C 183.441406 203.722656 185.164062 206.863281 186.308594 210.320312 C 187.566406 214.15625 188.175781 218.097656 188.128906 222.136719 Z M 172.179688 223.296875 C 172.320312 219.152344 171.449219 215.234375 169.566406 211.542969 C 168.042969 208.609375 165.878906 206.273438 163.074219 204.53125 C 160.625 203.046875 157.984375 202.078125 155.15625 201.628906 C 152.488281 201.207031 149.804688 200.992188 147.101562 200.976562 L 133.035156 200.976562 L 133.035156 247.039062 L 146.792969 247.039062 C 150.710938 247.144531 154.519531 246.546875 158.21875 245.246094 C 161.136719 244.167969 163.6875 242.523438 165.875 240.308594 C 168 238.15625 169.5625 235.648438 170.558594 232.789062 C 171.667969 229.707031 172.210938 226.527344 172.179688 223.246094 Z M 256.953125 279.132812 C 257.015625 282.9375 256.261719 286.570312 254.691406 290.035156 C 253.195312 293.222656 251.058594 295.894531 248.277344 298.046875 C 245.304688 300.359375 242.003906 302.03125 238.378906 303.054688 C 234.242188 304.222656 230.023438 304.789062 225.722656 304.757812 C 223.011719 304.765625 220.320312 304.539062 217.648438 304.074219 C 215.296875 303.710938 212.988281 303.160156 210.722656 302.433594 C 208.949219 301.863281 207.226562 301.160156 205.558594 300.332031 C 204.449219 299.800781 203.429688 299.132812 202.496094 298.328125 C 201.753906 297.664062 201.277344 296.84375 201.078125 295.863281 C 200.730469 294.425781 200.578125 292.96875 200.625 291.488281 C 200.613281 290.550781 200.667969 289.617188 200.796875 288.683594 C 200.890625 288.046875 201.03125 287.417969 201.214844 286.800781 C 201.371094 286.386719 201.625 286.054688 201.988281 285.800781 C 202.328125 285.601562 202.695312 285.507812 203.085938 285.519531 C 204.148438 285.667969 205.105469 286.0625 205.960938 286.710938 C 207.230469 287.503906 208.792969 288.382812 210.632812 289.324219 C 212.753906 290.371094 214.949219 291.234375 217.214844 291.910156 C 220.0625 292.777344 222.976562 293.183594 225.953125 293.128906 C 228.21875 293.148438 230.449219 292.875 232.644531 292.308594 C 234.535156 291.84375 236.273438 291.058594 237.871094 289.945312 C 239.34375 288.925781 240.476562 287.609375 241.273438 286 C 242.113281 284.183594 242.511719 282.277344 242.460938 280.273438 C 242.53125 278.191406 241.953125 276.3125 240.730469 274.625 C 239.488281 272.980469 237.984375 271.625 236.21875 270.5625 C 234.191406 269.304688 232.066406 268.253906 229.835938 267.417969 C 227.484375 266.503906 225.070312 265.535156 222.550781 264.542969 C 220.027344 263.550781 217.648438 262.390625 215.253906 261.136719 C 212.902344 259.890625 210.765625 258.335938 208.851562 256.480469 C 206.933594 254.582031 205.429688 252.394531 204.339844 249.921875 C 203.097656 247.003906 202.519531 243.960938 202.605469 240.792969 C 202.59375 237.660156 203.199219 234.65625 204.429688 231.777344 C 205.65625 228.855469 207.460938 226.347656 209.839844 224.257812 C 212.546875 221.945312 215.582031 220.214844 218.949219 219.0625 C 223.070312 217.679688 227.308594 217.035156 231.65625 217.128906 C 233.789062 217.125 235.90625 217.308594 238.007812 217.671875 C 239.957031 218.007812 241.875 218.472656 243.761719 219.0625 C 245.277344 219.519531 246.738281 220.113281 248.136719 220.855469 C 249.109375 221.332031 250.027344 221.898438 250.886719 222.558594 C 251.367188 222.902344 251.78125 223.316406 252.128906 223.796875 C 252.335938 224.1875 252.488281 224.59375 252.589844 225.019531 C 252.667969 225.421875 252.757812 226.019531 252.839844 226.613281 C 252.929688 227.402344 252.972656 228.199219 252.957031 228.996094 C 252.96875 229.867188 252.929688 230.738281 252.839844 231.609375 C 252.789062 232.222656 252.640625 232.808594 252.386719 233.371094 C 252.234375 233.785156 251.984375 234.136719 251.648438 234.421875 C 251.339844 234.613281 251.007812 234.707031 250.648438 234.703125 C 249.789062 234.582031 249.019531 234.246094 248.347656 233.703125 C 247.085938 232.925781 245.785156 232.234375 244.433594 231.628906 C 242.617188 230.78125 240.746094 230.078125 238.820312 229.527344 C 236.402344 228.828125 233.933594 228.492188 231.414062 228.523438 C 229.1875 228.488281 227.003906 228.769531 224.859375 229.375 C 223.148438 229.820312 221.605469 230.605469 220.238281 231.730469 C 219.023438 232.726562 218.105469 233.949219 217.488281 235.394531 C 216.839844 236.835938 216.527344 238.347656 216.554688 239.929688 C 216.484375 242.070312 217.070312 244.007812 218.316406 245.746094 C 219.59375 247.402344 221.125 248.773438 222.910156 249.863281 C 224.972656 251.113281 227.125 252.175781 229.375 253.046875 C 231.785156 253.980469 234.226562 254.980469 236.75 255.972656 C 239.269531 256.960938 241.75 258.09375 244.183594 259.347656 C 246.550781 260.535156 248.703125 262.03125 250.648438 263.832031 C 252.597656 265.652344 254.121094 267.78125 255.210938 270.21875 C 256.449219 273.042969 257.027344 275.992188 256.941406 279.070312 Z M 256.953125 279.132812 " fill-opacity="1" fill-rule="nonzero"/><g clip-path="url(#8cde65e4f8)"><path fill="#08253c" d="M 46.308594 0 L 246.054688 0 L 328.445312 82.460938 L 328.445312 375.011719 L 46.308594 375.011719 Z M 46.308594 0 " fill-opacity="1" fill-rule="evenodd"/></g><path fill="#37abff" d="M 188.097656 222.085938 C 188.1875 227.449219 187.246094 232.621094 185.265625 237.605469 C 183.449219 242.144531 180.753906 246.082031 177.179688 249.414062 C 173.394531 252.808594 169.089844 255.316406 164.273438 256.941406 C 158.332031 258.839844 152.246094 259.730469 146.011719 259.605469 L 133.003906 259.605469 L 133.003906 300.820312 C 133.027344 301.285156 132.894531 301.703125 132.613281 302.074219 C 132.285156 302.472656 131.878906 302.753906 131.390625 302.925781 C 130.640625 303.164062 129.871094 303.34375 129.089844 303.464844 C 126.632812 303.734375 124.175781 303.734375 121.714844 303.464844 C 120.929688 303.34375 120.15625 303.164062 119.394531 302.925781 C 118.890625 302.78125 118.484375 302.496094 118.175781 302.074219 C 117.90625 301.699219 117.785156 301.28125 117.804688 300.820312 L 117.804688 195.089844 C 117.804688 192.738281 118.425781 191.023438 119.675781 190.082031 C 120.871094 189.074219 122.253906 188.574219 123.816406 188.582031 L 148.351562 188.582031 C 150.824219 188.582031 153.207031 188.671875 155.476562 188.863281 C 158.171875 189.164062 160.839844 189.609375 163.484375 190.203125 C 166.839844 190.992188 170.007812 192.257812 172.988281 194 C 176.109375 195.828125 178.828125 198.128906 181.152344 200.898438 C 183.453125 203.722656 185.171875 206.863281 186.316406 210.320312 C 187.574219 214.160156 188.179688 218.097656 188.128906 222.136719 Z M 172.15625 223.296875 C 172.292969 219.167969 171.421875 215.261719 169.546875 211.582031 C 168.03125 208.644531 165.867188 206.308594 163.050781 204.574219 C 160.605469 203.085938 157.964844 202.117188 155.136719 201.667969 C 152.46875 201.25 149.785156 201.03125 147.082031 201.019531 L 133.011719 201.019531 L 133.011719 247.078125 L 146.773438 247.078125 C 150.695312 247.183594 154.507812 246.585938 158.210938 245.285156 C 161.125 244.207031 163.675781 242.5625 165.863281 240.351562 C 167.992188 238.195312 169.550781 235.691406 170.546875 232.832031 C 171.652344 229.746094 172.1875 226.566406 172.15625 223.289062 Z M 256.941406 279.132812 C 257 282.9375 256.246094 286.574219 254.671875 290.035156 C 253.179688 293.222656 251.042969 295.890625 248.265625 298.046875 C 245.289062 300.363281 241.988281 302.03125 238.359375 303.054688 C 234.222656 304.222656 230.007812 304.789062 225.710938 304.757812 C 222.996094 304.765625 220.300781 304.539062 217.625 304.074219 C 215.277344 303.710938 212.96875 303.160156 210.703125 302.433594 C 208.929688 301.863281 207.214844 301.164062 205.550781 300.332031 C 204.4375 299.796875 203.414062 299.128906 202.476562 298.328125 C 201.730469 297.664062 201.261719 296.84375 201.066406 295.863281 C 200.714844 294.425781 200.5625 292.96875 200.605469 291.488281 C 200.597656 290.550781 200.652344 289.617188 200.777344 288.683594 C 200.878906 288.046875 201.023438 287.421875 201.207031 286.800781 C 201.324219 286.390625 201.558594 286.0625 201.910156 285.816406 C 202.261719 285.574219 202.652344 285.46875 203.078125 285.5 C 204.136719 285.648438 205.089844 286.042969 205.9375 286.691406 C 207.21875 287.484375 208.78125 288.363281 210.621094 289.304688 C 212.742188 290.355469 214.9375 291.214844 217.207031 291.890625 C 220.054688 292.757812 222.964844 293.164062 225.941406 293.109375 C 228.210938 293.128906 230.441406 292.855469 232.636719 292.289062 C 234.519531 291.828125 236.257812 291.039062 237.847656 289.925781 C 239.328125 288.910156 240.460938 287.59375 241.25 285.980469 C 242.097656 284.164062 242.496094 282.257812 242.441406 280.253906 C 242.515625 278.175781 241.941406 276.292969 240.722656 274.605469 C 239.480469 272.960938 237.972656 271.605469 236.207031 270.539062 C 234.183594 269.285156 232.054688 268.238281 229.824219 267.398438 C 227.472656 266.484375 225.0625 265.515625 222.539062 264.523438 C 220.019531 263.53125 217.625 262.371094 215.246094 261.117188 C 212.886719 259.867188 210.75 258.316406 208.832031 256.460938 C 206.914062 254.5625 205.414062 252.375 204.328125 249.902344 C 203.082031 246.984375 202.503906 243.941406 202.597656 240.769531 C 202.582031 237.640625 203.183594 234.636719 204.410156 231.757812 C 205.636719 228.835938 207.445312 226.328125 209.832031 224.238281 C 212.535156 221.921875 215.570312 220.191406 218.9375 219.042969 C 223.058594 217.660156 227.289062 217.015625 231.636719 217.109375 C 233.769531 217.105469 235.886719 217.285156 237.988281 217.648438 C 239.941406 217.988281 241.863281 218.453125 243.753906 219.042969 C 245.265625 219.496094 246.71875 220.09375 248.117188 220.835938 C 249.089844 221.308594 250.007812 221.875 250.867188 222.535156 C 251.351562 222.882812 251.769531 223.296875 252.117188 223.777344 C 252.320312 224.164062 252.472656 224.574219 252.570312 225 C 252.660156 225.402344 252.738281 226 252.828125 226.59375 C 252.914062 227.382812 252.949219 228.179688 252.9375 228.976562 C 252.949219 229.847656 252.910156 230.71875 252.828125 231.589844 C 252.769531 232.199219 252.621094 232.789062 252.378906 233.351562 C 252.21875 233.761719 251.972656 234.113281 251.636719 234.402344 C 251.332031 234.59375 250.996094 234.683594 250.636719 234.683594 C 249.777344 234.5625 249.011719 234.230469 248.335938 233.679688 C 247.078125 232.90625 245.773438 232.214844 244.421875 231.609375 C 242.605469 230.761719 240.734375 230.0625 238.808594 229.507812 C 236.390625 228.804688 233.921875 228.472656 231.40625 228.503906 C 229.179688 228.464844 226.996094 228.75 224.851562 229.355469 C 223.136719 229.800781 221.597656 230.582031 220.226562 231.710938 C 219.011719 232.707031 218.09375 233.925781 217.476562 235.375 C 216.824219 236.816406 216.511719 238.328125 216.535156 239.910156 C 216.46875 242.046875 217.058594 243.988281 218.296875 245.726562 C 219.574219 247.382812 221.105469 248.753906 222.890625 249.84375 C 224.957031 251.09375 227.113281 252.15625 229.363281 253.027344 C 231.777344 253.957031 234.207031 254.960938 236.738281 255.953125 C 239.269531 256.941406 241.742188 258.074219 244.164062 259.324219 C 246.53125 260.519531 248.6875 262.015625 250.636719 263.8125 C 252.585938 265.636719 254.105469 267.765625 255.199219 270.199219 C 256.433594 273.023438 257.011719 275.972656 256.929688 279.050781 Z M 256.941406 279.132812 " fill-opacity="1" fill-rule="nonzero"/></svg>